<svg width="134" height="16" viewBox="0 0 134 16" fill="none" xmlns="http://www.w3.org/2000/svg">
  <g opacity="0.24">
    <path
      d="M4.09022 15.7077L0 0.276394H2.68296L5.82575 12.1286L9.19406 0.275391L11.6951 0.276394L15.0751 12.1916L18.2318 0.279329L20.9149 0.275391L16.8227 15.7052L13.7129 15.7018L10.4455 4.17784L7.1753 15.7049L4.09022 15.7077Z"
      fill="white"/>
    <path d="M22.7655 0.28418H25.3196V15.6977H22.7655V0.28418Z" fill="white"/>
    <path d="M30.7801 13.2799H36.9978V15.6977H28.2788V0.28418H30.7801C30.7801 0.28418 30.7801 13.2799 30.7801 13.2799Z" fill="white"/>
    <path
      d="M44.8537 0.28418C46.95 0.28418 48.6938 1.04861 50.0678 2.52419C51.4593 3.99975 52.164 5.83085 52.164 7.99975C52.164 10.1509 51.4593 11.9821 50.0678 13.4753C48.6938 14.9509 46.95 15.6977 44.8537 15.6977H38.8474V0.28418H44.8537ZM44.8537 13.2976C46.2983 13.2976 47.4785 12.7999 48.3591 11.8042C49.2751 10.8087 49.733 9.52865 49.733 8.01753C49.733 6.47087 49.2751 5.22643 48.3591 4.23083C47.4609 3.23529 46.2808 2.73752 44.8537 2.73752H41.3663V13.2976H44.8537Z"
      fill="white"/>
    <path
      d="M65.6388 11.2943C65.6388 12.5571 65.1985 13.6068 64.3001 14.4426C63.4019 15.2788 62.3451 15.7055 61.0416 15.7055H54.5067V0.28418H60.5661C61.8166 0.28418 62.8734 0.711056 63.7367 1.51147C64.6172 2.32968 65.0399 3.34355 65.0399 4.55308C65.0399 5.90491 64.5117 6.93653 63.4898 7.7014C64.8286 8.41288 65.6388 9.69351 65.6388 11.2943ZM57.0256 2.66765V6.72308H60.5837C61.6932 6.72308 62.5389 5.83376 62.5389 4.69538C62.5389 3.557 61.6932 2.66765 60.5837 2.66765H57.0256ZM61.0591 13.34C62.2217 13.34 63.1378 12.3795 63.1378 11.17C63.1378 9.96043 62.2217 9.01764 61.0591 9.01764H57.0256V13.34H61.0591V13.34Z"
      fill="white"/>
    <path d="M70.5177 13.2864H77.2818V15.7055H68.0167V0.28418H77.176V2.70322H70.5177V6.70529H76.6299V9.10655H70.5177V13.2864Z" fill="white"/>
    <path
      d="M88.2381 15.7055L84.9969 10.0848H82.0377V15.7055H79.5364V0.28418H85.6485C87.0225 0.28418 88.185 0.764449 89.1187 1.74273C90.0699 2.68541 90.5629 3.85936 90.5629 5.24675C90.5629 7.20335 89.3476 8.99981 87.5334 9.71141L91.0035 15.7055H88.2381ZM82.0377 2.66765V7.82587H85.631C86.9697 7.82587 88.0264 6.68749 88.0264 5.24675C88.0264 3.82379 86.9521 2.66765 85.631 2.66765H82.0377Z"
      fill="white"/>
    <path
      d="M101.607 15.7057L98.3839 10.0822H95.4247V15.7057H92.9233V0.276367H99.0355C100.409 0.276367 101.572 0.75687 102.506 1.73566C103.457 2.67888 103.95 3.85341 103.95 5.2415C103.95 7.1991 102.735 8.99655 100.92 9.70824L104.39 15.7057H101.607V15.7057ZM95.4247 2.66108V7.82197H99.0179C100.357 7.82197 101.413 6.68303 101.413 5.2415C101.413 3.81782 100.339 2.66108 99.0179 2.66108H95.4247Z"
      fill="white"/>
    <path d="M106.222 0.27832H108.723V15.706H106.222V0.27832Z" fill="white"/>
    <path d="M114.184 13.2864H120.948V15.7055H111.682V0.28418H120.842V2.70322H114.184V6.70529H120.296V9.10653H114.184V13.2864Z" fill="white"/>
    <path
      d="M122.691 12.1956L124.858 10.9157C125.474 12.6578 126.725 13.5111 128.645 13.5111C130.547 13.5111 131.481 12.6933 131.481 11.4844C131.481 10.8446 131.217 10.3824 130.724 10.0623C130.231 9.72451 129.315 9.35116 128.011 8.96003C126.549 8.51561 125.827 8.23117 124.805 7.55558C123.819 6.84449 123.326 5.83114 123.326 4.44447C123.326 3.07558 123.801 2.00889 124.77 1.2089C125.721 0.391127 126.884 0 128.24 0C130.688 0 132.573 1.28003 133.56 3.39557L131.446 4.62225C130.812 3.20003 129.737 2.47115 128.24 2.47115C126.778 2.47115 125.844 3.21779 125.844 4.39115C125.844 5.52893 126.584 6.06227 128.927 6.79113C129.508 6.98671 129.931 7.12894 130.195 7.23558C130.477 7.32447 130.847 7.48448 131.322 7.68003C131.816 7.8756 132.203 8.10672 132.432 8.30225C133.243 8.94226 134 9.96292 134 11.4667C134 12.8535 133.507 13.9733 132.503 14.7911C131.516 15.6089 130.213 16 128.592 16C125.633 15.9822 123.484 14.5601 122.691 12.1956Z"
      fill="white"/>
  </g>
</svg>
