<svg viewBox="0 0 24 24" fill="none" xmlns="http://www.w3.org/2000/svg" data-v-39336072="">
  <path
    fill="currentColor"
    d="M12 2C6.486 2 2 6.486 2 12s4.486 10 10 10 10-4.486 10-10S17.514 2 12 2Zm0 1.5c4.703 0 8.5 3.797 8.5 8.5 0 4.703-3.797 8.5-8.5 8.5A8.489 8.489 0 0 1 3.5 12c0-4.703 3.797-8.5 8.5-8.5ZM12 6c-.938 0-1.736.379-2.248.955C9.239 7.532 9 8.271 9 9c0 .73.24 1.468.752 2.045.512.576 1.31.955 2.248.955.938 0 1.736-.379 2.248-.955C14.761 10.468 15 9.729 15 9c0-.73-.24-1.468-.752-2.045C13.736 6.38 12.938 6 12 6Zm0 1.5c.563 0 .89.184 1.127.451S13.5 8.604 13.5 9c0 .396-.136.782-.373 1.049-.238.267-.565.451-1.127.451-.563 0-.89-.184-1.127-.451S10.5 9.396 10.5 9c0-.396.136-.782.373-1.049.238-.267.565-.451 1.127-.451ZM8.63 13C7.74 13 7 13.739 7 14.63v.54c0 .995.628 1.859 1.523 2.43.896.57 2.092.901 3.477.901 1.385 0 2.581-.33 3.477-.901.895-.571 1.523-1.435 1.523-2.43v-.54c0-.89-.738-1.63-1.63-1.63H8.63Zm0 1.5h6.74c.08 0 .13.05.13.13v.54c0 .357-.232.784-.83 1.165s-1.528.666-2.67.666-2.072-.285-2.67-.666c-.598-.381-.83-.808-.83-1.164v-.541c0-.08.05-.13.13-.13Z"/>
</svg>
