<svg viewBox="0 0 24 24" fill="none" xmlns="http://www.w3.org/2000/svg">
  <path
    d="M2 3C1.44772 3 1 3.44772 1 4C1 4.55228 1.44772 5 2 5V3ZM5 4H6C6 3.44772 5.55228 3 5 3V4ZM19 19C19.5523 19 20 18.5523 20 18C20 17.4477 19.5523 17 19 17V19ZM12 17C11.4477 17 11 17.4477 11 18C11 18.5523 11.4477 19 12 19V17ZM5.50701 18.6274C5.98752 18.8997 6.59777 18.7309 6.87004 18.2504C7.14231 17.7699 6.97349 17.1596 6.49298 16.8874L5.50701 18.6274ZM2 5H5V3H2V5ZM4 4V15.8462H6V4H4ZM12 19C13.1622 19 14.4049 19 15.6107 19C16.8166 19 17.9855 19 19 19V17C17.9855 17 16.8166 17 15.6107 17C14.4049 17 13.1622 17 12 17V19ZM4 15.8462C4 16.5345 4.27007 17.9266 5.50701 18.6274L6.49298 16.8874C6.34173 16.8017 6.21822 16.6544 6.12731 16.4428C6.03373 16.2249 6 15.9935 6 15.8462H4Z"
    fill="currentColor"/>
  <circle cx="9" cy="19" r="3" stroke="currentColor" stroke-width="2"/>
  <rect x="9" y="3" width="12" height="11" rx="2" stroke="currentColor" stroke-width="2"/>
</svg>
