<svg viewBox="0 0 24 24" fill="none" xmlns="http://www.w3.org/2000/svg" data-v-3617094e="">
  <g fill="currentColor">
    <path fill-rule="evenodd" clip-rule="evenodd"
          d="M3.25 6C3.25 4.48122 4.48122 3.25 6 3.25H18C19.5188 3.25 20.75 4.48122 20.75 6V18C20.75 19.5188 19.5188 20.75 18 20.75H6C4.48122 20.75 3.25 19.5188 3.25 18V6ZM6 4.75C5.30964 4.75 4.75 5.30964 4.75 6V18C4.75 18.6904 5.30964 19.25 6 19.25H18C18.6904 19.25 19.25 18.6904 19.25 18V6C19.25 5.30964 18.6904 4.75 18 4.75H6Z M7 3.25C7.41421 3.25 7.75 3.58579 7.75 4V20C7.75 20.4142 7.41421 20.75 7 20.75C6.58579 20.75 6.25 20.4142 6.25 20V4C6.25 3.58579 6.58579 3.25 7 3.25ZM10.3333 3.25C10.7475 3.25 11.0833 3.58579 11.0833 4V20C11.0833 20.4142 10.7475 20.75 10.3333 20.75C9.91912 20.75 9.58333 20.4142 9.58333 20V4C9.58333 3.58579 9.91912 3.25 10.3333 3.25ZM13.6667 3.25C14.0809 3.25 14.4167 3.58579 14.4167 4V20C14.4167 20.4142 14.0809 20.75 13.6667 20.75C13.2525 20.75 12.9167 20.4142 12.9167 20V4C12.9167 3.58579 13.2525 3.25 13.6667 3.25ZM17 3.25C17.4142 3.25 17.75 3.58579 17.75 4V20C17.75 20.4142 17.4142 20.75 17 20.75C16.5858 20.75 16.25 20.4142 16.25 20V4C16.25 3.58579 16.5858 3.25 17 3.25Z"
    />
  </g>
</svg>
