<svg viewBox="0 0 24 24" fill="none" xmlns="http://www.w3.org/2000/svg">
  <path
    d="M8.09767 3C7.8892 2.99999 7.69112 3.09288 7.55539 3.2543L5.57325 5.61603C5.42019 5.75472 5.33281 5.95373 5.33328 6.16257C5.33327 6.16384 5.33327 6.1651 5.33328 6.16637C5.33327 6.16763 5.33327 6.1689 5.33328 6.17016V9.31471L3.59112 7.13516C3.37062 6.86019 3.37289 6.46217 3.59577 6.18914L4.53893 5.03437C4.60513 4.95324 4.69285 4.93939 4.73333 4.94328C4.76 4.94377 4.80073 4.95511 4.84216 4.97649L5.7044 3.81413C5.43057 3.61251 5.10469 3.49165 4.75752 3.48582C4.24556 3.4761 3.76806 3.70181 3.44136 4.10163L2.49912 5.25546C1.83906 6.06289 1.83323 7.24084 2.48424 8.05556L4.38081 10.4277V18.328C4.38081 19.7951 5.56198 21 7.0001 21C7.00072 21 7.00134 21 7.00196 21L17.001 20.9753C18.4391 20.9753 19.6203 19.7704 19.6203 18.3033V10.4268L21.5159 8.05556C22.167 7.24084 22.1606 6.06289 21.5011 5.25546L20.5588 4.10163C20.2321 3.70181 19.7546 3.4761 19.2427 3.48582C18.8955 3.49165 18.5696 3.61251 18.2958 3.81413L19.158 4.97649C19.1999 4.95511 19.2407 4.94377 19.2668 4.94328C19.3073 4.93939 19.3951 4.95324 19.4612 5.03437L20.4044 6.18914C20.6273 6.46217 20.6296 6.86019 20.4091 7.13516L18.6678 9.31281V6.17016C18.6679 6.16732 18.6679 6.16447 18.6678 6.16162C18.6675 6.15022 18.6669 6.13883 18.666 6.12746C18.6653 6.11035 18.6641 6.09326 18.6623 6.07623C18.644 5.91346 18.5726 5.76171 18.4595 5.64544C18.4592 5.64512 18.4589 5.64481 18.4585 5.64449L16.7108 3.28845C16.5757 3.10675 16.3651 3.00001 16.1416 3H8.09767ZM8.42694 4.45746H15.7862L16.5164 5.44143H7.60004L8.42694 4.45746ZM6.76198 6.89889H17.2391V9.31566H6.76198V6.89889ZM5.80951 10.7731H18.1916V18.3033C18.1916 18.9826 17.6669 19.5179 17.001 19.5179C17.0004 19.5179 16.9998 19.5179 16.9992 19.5179L7.0001 19.5425C6.33421 19.5425 5.80951 19.0073 5.80951 18.328L5.80951 10.7731ZM9.8575 12.7164C9.59988 12.7127 9.36025 12.8508 9.23038 13.0778C9.10051 13.3048 9.10051 13.5855 9.23038 13.8125C9.36025 14.0395 9.59988 14.1776 9.8575 14.1739H14.1436C14.4012 14.1776 14.6409 14.0395 14.7707 13.8125C14.9006 13.5855 14.9006 13.3048 14.7707 13.0778C14.6409 12.8508 14.4012 12.7127 14.1436 12.7164H9.8575Z"
    fill="currentColor"/>
  <circle cx="18" cy="6" r="6" fill="url(#paint0_linear_14893_290505)"/>
  <path
    d="M14.9718 8L14 4.00026H14.6375L15.3842 7.07232L16.1845 4L16.7788 4.00026L17.5819 7.08864L18.3319 4.00102L18.9694 4L17.9971 7.99935L17.2582 7.99847L16.4819 5.0115L15.7049 7.99927L14.9718 8Z"
    fill="white"/>
  <path
    d="M22 6.8562C22 7.18351 21.8954 7.45558 21.6819 7.67223C21.4685 7.88896 21.2174 7.99955 20.9077 7.99955H19.355V4.0024H20.7947C21.0918 4.0024 21.3429 4.11305 21.548 4.32051C21.7573 4.53259 21.8577 4.79538 21.8577 5.10889C21.8577 5.45928 21.7322 5.72667 21.4894 5.92493C21.8075 6.10934 22 6.44127 22 6.8562ZM19.9535 4.62019V5.67135H20.7989C21.0625 5.67135 21.2635 5.44084 21.2635 5.14577C21.2635 4.85071 21.0625 4.62019 20.7989 4.62019H19.9535ZM20.9119 7.38643C21.1881 7.38643 21.4057 7.13747 21.4057 6.82396C21.4057 6.51046 21.1881 6.26609 20.9119 6.26609H19.9535V7.38643L20.9119 7.38643Z"
    fill="white"/>
  <defs>
    <linearGradient id="paint0_linear_14893_290505" x1="12" y1="6" x2="19.6667" y2="6" gradientUnits="userSpaceOnUse">
      <stop stop-color="#D960F7"/>
      <stop offset="1" stop-color="#7431E2"/>
    </linearGradient>
  </defs>
</svg>
