<svg viewBox="0 0 24 24" fill="none" xmlns="http://www.w3.org/2000/svg">
  <path fill-rule="evenodd" clip-rule="evenodd"
        d="M9.99996 1.98471C10.3595 1.37454 11.0149 1 11.7232 1H12.2718C12.98 1 13.6354 1.37454 13.9949 1.98471L14.4336 2.7292L15.6021 3.08833L16.4141 2.7339C17.0568 2.45334 17.7996 2.52993 18.3715 2.93575L18.8 3.23978C19.3916 3.65955 19.7096 4.36676 19.6309 5.08788L19.5507 5.82271L20.2757 6.85615L21.1117 7.02844C21.8109 7.17254 22.3803 7.67846 22.6057 8.35588L22.7598 8.81895C22.9899 9.51071 22.8254 10.2729 22.3305 10.8082L21.7476 11.4385V12.5615L22.3305 13.1918C22.8254 13.7271 22.9899 14.4893 22.7598 15.1811L22.6057 15.6441C22.3803 16.3215 21.8109 16.8275 21.1117 16.9716L20.1127 17.1774L19.5302 17.9896L19.6309 18.9121C19.7096 19.6332 19.3916 20.3405 18.8 20.7602L18.3715 21.0643C17.7996 21.4701 17.0568 21.5467 16.4141 21.2661L15.6415 20.9289L14.436 21.2666L13.9949 22.0153C13.6354 22.6255 12.98 23 12.2718 23H11.7232C11.0149 23 10.3595 22.6255 9.99996 22.0153L9.49769 21.1628L8.49433 20.8673L7.58081 21.2661C6.93806 21.5467 6.19532 21.4701 5.62336 21.0642L5.19487 20.7602C4.60326 20.3405 4.28531 19.6332 4.36401 18.9121L4.46217 18.0127L3.79718 17.1599L2.88322 16.9716C2.18399 16.8275 1.61459 16.3215 1.3892 15.6441L1.23513 15.1811C1.00498 14.4893 1.16947 13.7271 1.66444 13.1918L2.24737 12.5614V11.4386L1.66444 10.8082C1.16947 10.2729 1.00498 9.51071 1.23514 8.81895L1.3892 8.35588C1.61459 7.67846 2.18399 7.17254 2.88322 7.02844L3.80571 6.83832L4.46242 5.98959L4.36401 5.08788C4.28531 4.36675 4.60326 3.65954 5.19488 3.23977L5.62337 2.93575C6.19533 2.52993 6.93806 2.45334 7.58081 2.7339L8.39279 3.08833L9.56132 2.7292L9.99996 1.98471ZM12.2718 3H11.7232L11.2845 3.74448C11.0311 4.17455 10.626 4.49431 10.1489 4.64095L8.98034 5.00008C8.52324 5.14057 8.03094 5.11262 7.59267 4.92132L6.7807 4.56688L6.35221 4.8709L6.45061 5.77261C6.50679 6.2874 6.36111 6.80392 6.04421 7.21349L5.3875 8.06223C5.09517 8.44003 4.67727 8.70073 4.20941 8.79715L3.28692 8.98727L3.13286 9.45034L3.71579 10.0807C4.05755 10.4503 4.24737 10.9352 4.24737 11.4386V12.5614C4.24737 13.0648 4.05755 13.5497 3.71579 13.9193L3.13285 14.5497L3.28692 15.0127L4.20088 15.2011C4.6662 15.297 5.08219 15.5554 5.37435 15.9301L6.03933 16.7828C6.35938 17.1933 6.50683 17.7123 6.45036 18.2297L6.35221 19.1291L6.78069 19.4331L7.69414 19.0344C8.12489 18.8464 8.60826 18.816 9.05928 18.9488L10.1512 19.2703C10.581 19.3969 10.9466 19.682 11.174 20.068L11.7232 21H12.2718L12.8209 20.068C13.0138 19.7407 13.3257 19.5007 13.6915 19.3982L15.25 18.9616C15.5982 18.864 15.9694 18.8897 16.3008 19.0344L17.2142 19.4331L17.6427 19.1291L17.542 18.2066C17.4886 17.7168 17.6178 17.2245 17.905 16.8241L18.4874 16.0119C18.7804 15.6033 19.2166 15.3201 19.709 15.2186L20.708 15.0127L20.862 14.5497L20.2792 13.9194C19.9375 13.5498 19.7476 13.0649 19.7476 12.5615V11.4385C19.7476 10.9351 19.9375 10.4502 20.2792 10.0806L20.862 9.45034L20.708 8.98727L19.872 8.81498C19.3725 8.71205 18.9313 8.42222 18.6384 8.00475L17.9134 6.97131C17.6345 6.5738 17.5098 6.08842 17.5625 5.60573L17.6427 4.87091L17.2142 4.56688L16.4022 4.92132C15.964 5.11262 15.4717 5.14057 15.0146 5.00008L13.846 4.64095C13.3689 4.49431 12.9638 4.17455 12.7104 3.74448L12.2718 3Z"
        fill="currentColor"/>
  <circle cx="12" cy="12" r="3" stroke="currentColor" stroke-width="2"/>
</svg>
