<svg viewBox="0 0 16 16" xmlns="http://www.w3.org/2000/svg">
  <path
    d="M7.99931 1.33334C6.90069 1.33334 5.99931 2.23472 5.99931 3.33334H3.91467C3.885 3.32826 3.85493 3.32586 3.82483 3.32618C3.8006 3.32681 3.77645 3.32921 3.75256 3.33334H2.49931C2.31899 3.33079 2.15127 3.42553 2.06036 3.58128C1.96946 3.73703 1.96946 3.92966 2.06036 4.08541C2.15127 4.24116 2.31899 4.33589 2.49931 4.33334H3.33264V12.8333C3.33264 13.8399 4.15938 14.6667 5.16598 14.6667H10.8326C11.8392 14.6667 12.666 13.8399 12.666 12.8333V4.33334H13.4993C13.6796 4.33589 13.8474 4.24116 13.9383 4.08541C14.0292 3.92966 14.0292 3.73703 13.9383 3.58128C13.8474 3.42553 13.6796 3.33079 13.4993 3.33334H12.248C12.1943 3.32453 12.1396 3.32453 12.0859 3.33334H9.99931C9.99931 2.23472 9.09793 1.33334 7.99931 1.33334H7.99931ZM7.99931 2.33334C8.55735 2.33334 8.99931 2.7753 8.99931 3.33334H6.99931C6.99931 2.7753 7.44126 2.33334 7.99931 2.33334ZM4.33264 4.33334H11.666V12.8333C11.666 13.2994 11.2987 13.6667 10.8326 13.6667H5.16597C4.6999 13.6667 4.33264 13.2994 4.33264 12.8333V4.33334ZM6.82483 5.99285C6.54894 5.99716 6.32868 6.22412 6.33264 6.50001V11.5C6.33009 11.6803 6.42483 11.8481 6.58058 11.939C6.73633 12.0299 6.92896 12.0299 7.08471 11.939C7.24046 11.8481 7.33519 11.6803 7.33264 11.5V6.50001C7.33458 6.3648 7.28168 6.23458 7.18601 6.13902C7.09033 6.04347 6.96003 5.99074 6.82483 5.99285H6.82483ZM9.15816 5.99285C8.88228 5.99716 8.66202 6.22412 8.66598 6.50001V11.5C8.66343 11.6803 8.75816 11.8481 8.91391 11.939C9.06966 12.0299 9.26229 12.0299 9.41804 11.939C9.57379 11.8481 9.66853 11.6803 9.66598 11.5V6.50001C9.66792 6.3648 9.61502 6.23458 9.51934 6.13902C9.42366 6.04347 9.29337 5.99074 9.15816 5.99285H9.15816Z"
    fill="currentColor"
  />
</svg>
